%TF.GenerationSoftware,KiCad,Pcbnew,7.0.2*%
%TF.CreationDate,2023-04-24T16:58:58-04:00*%
%TF.ProjectId,JTAG_Terminal_Block,4a544147-5f54-4657-926d-696e616c5f42,rev?*%
%TF.SameCoordinates,Original*%
%TF.FileFunction,Drillmap*%
%TF.FilePolarity,Positive*%
%FSLAX45Y45*%
G04 Gerber Fmt 4.5, Leading zero omitted, Abs format (unit mm)*
G04 Created by KiCad (PCBNEW 7.0.2) date 2023-04-24 16:58:58*
%MOMM*%
%LPD*%
G01*
G04 APERTURE LIST*
%ADD10C,0.100000*%
%ADD11C,0.200000*%
%ADD12C,0.130000*%
G04 APERTURE END LIST*
D10*
X17780000Y-12700000D02*
X17780000Y-3048000D01*
X11684000Y-12700000D02*
X17780000Y-12700000D01*
X11684000Y-3048000D02*
X11684000Y-12700000D01*
X17780000Y-3048000D02*
X11684000Y-3048000D01*
D11*
D10*
X11888000Y-6522000D02*
X11988000Y-6622000D01*
X11988000Y-6522000D02*
X11888000Y-6622000D01*
X11888000Y-6776000D02*
X11988000Y-6876000D01*
X11988000Y-6776000D02*
X11888000Y-6876000D01*
X11888000Y-7030000D02*
X11988000Y-7130000D01*
X11988000Y-7030000D02*
X11888000Y-7130000D01*
X11888000Y-7284000D02*
X11988000Y-7384000D01*
X11988000Y-7284000D02*
X11888000Y-7384000D01*
X11888000Y-7538000D02*
X11988000Y-7638000D01*
X11988000Y-7538000D02*
X11888000Y-7638000D01*
X11888000Y-7792000D02*
X11988000Y-7892000D01*
X11988000Y-7792000D02*
X11888000Y-7892000D01*
X11888000Y-8046000D02*
X11988000Y-8146000D01*
X11988000Y-8046000D02*
X11888000Y-8146000D01*
X11888000Y-8300000D02*
X11988000Y-8400000D01*
X11988000Y-8300000D02*
X11888000Y-8400000D01*
X11888000Y-8554000D02*
X11988000Y-8654000D01*
X11988000Y-8554000D02*
X11888000Y-8654000D01*
X11888000Y-8808000D02*
X11988000Y-8908000D01*
X11988000Y-8808000D02*
X11888000Y-8908000D01*
X12142000Y-6522000D02*
X12242000Y-6622000D01*
X12242000Y-6522000D02*
X12142000Y-6622000D01*
X12142000Y-6776000D02*
X12242000Y-6876000D01*
X12242000Y-6776000D02*
X12142000Y-6876000D01*
X12142000Y-7030000D02*
X12242000Y-7130000D01*
X12242000Y-7030000D02*
X12142000Y-7130000D01*
X12142000Y-7284000D02*
X12242000Y-7384000D01*
X12242000Y-7284000D02*
X12142000Y-7384000D01*
X12142000Y-7538000D02*
X12242000Y-7638000D01*
X12242000Y-7538000D02*
X12142000Y-7638000D01*
X12142000Y-7792000D02*
X12242000Y-7892000D01*
X12242000Y-7792000D02*
X12142000Y-7892000D01*
X12142000Y-8046000D02*
X12242000Y-8146000D01*
X12242000Y-8046000D02*
X12142000Y-8146000D01*
X12142000Y-8300000D02*
X12242000Y-8400000D01*
X12242000Y-8300000D02*
X12142000Y-8400000D01*
X12142000Y-8554000D02*
X12242000Y-8654000D01*
X12242000Y-8554000D02*
X12142000Y-8654000D01*
X12142000Y-8808000D02*
X12242000Y-8908000D01*
X12242000Y-8808000D02*
X12142000Y-8908000D01*
X13412000Y-4776000D02*
X13512000Y-4876000D01*
X13512000Y-4776000D02*
X13412000Y-4876000D01*
X13412000Y-5030000D02*
X13512000Y-5130000D01*
X13512000Y-5030000D02*
X13412000Y-5130000D01*
X14936000Y-4776000D02*
X15036000Y-4876000D01*
X15036000Y-4776000D02*
X14936000Y-4876000D01*
X14936000Y-5030000D02*
X15036000Y-5130000D01*
X15036000Y-5030000D02*
X14936000Y-5130000D01*
D12*
X17337000Y-4350000D02*
G75*
G03*
X17337000Y-4350000I-65000J0D01*
G01*
X17337000Y-4850000D02*
G75*
G03*
X17337000Y-4850000I-65000J0D01*
G01*
X17337000Y-5350000D02*
G75*
G03*
X17337000Y-5350000I-65000J0D01*
G01*
X17337000Y-5850000D02*
G75*
G03*
X17337000Y-5850000I-65000J0D01*
G01*
X17337000Y-6350000D02*
G75*
G03*
X17337000Y-6350000I-65000J0D01*
G01*
X17337000Y-6850000D02*
G75*
G03*
X17337000Y-6850000I-65000J0D01*
G01*
X17337000Y-7350000D02*
G75*
G03*
X17337000Y-7350000I-65000J0D01*
G01*
X17337000Y-7850000D02*
G75*
G03*
X17337000Y-7850000I-65000J0D01*
G01*
X17337000Y-8350000D02*
G75*
G03*
X17337000Y-8350000I-65000J0D01*
G01*
X17337000Y-8850000D02*
G75*
G03*
X17337000Y-8850000I-65000J0D01*
G01*
X17337000Y-9350000D02*
G75*
G03*
X17337000Y-9350000I-65000J0D01*
G01*
X17337000Y-9850000D02*
G75*
G03*
X17337000Y-9850000I-65000J0D01*
G01*
X17337000Y-10350000D02*
G75*
G03*
X17337000Y-10350000I-65000J0D01*
G01*
X17337000Y-10850000D02*
G75*
G03*
X17337000Y-10850000I-65000J0D01*
G01*
X17337000Y-11350000D02*
G75*
G03*
X17337000Y-11350000I-65000J0D01*
G01*
D11*
X11926619Y-13017524D02*
X11926619Y-12817524D01*
X11926619Y-12817524D02*
X11974238Y-12817524D01*
X11974238Y-12817524D02*
X12002809Y-12827048D01*
X12002809Y-12827048D02*
X12021857Y-12846095D01*
X12021857Y-12846095D02*
X12031381Y-12865143D01*
X12031381Y-12865143D02*
X12040905Y-12903238D01*
X12040905Y-12903238D02*
X12040905Y-12931809D01*
X12040905Y-12931809D02*
X12031381Y-12969905D01*
X12031381Y-12969905D02*
X12021857Y-12988952D01*
X12021857Y-12988952D02*
X12002809Y-13008000D01*
X12002809Y-13008000D02*
X11974238Y-13017524D01*
X11974238Y-13017524D02*
X11926619Y-13017524D01*
X12126619Y-13017524D02*
X12126619Y-12884190D01*
X12126619Y-12922286D02*
X12136143Y-12903238D01*
X12136143Y-12903238D02*
X12145667Y-12893714D01*
X12145667Y-12893714D02*
X12164714Y-12884190D01*
X12164714Y-12884190D02*
X12183762Y-12884190D01*
X12250428Y-13017524D02*
X12250428Y-12884190D01*
X12250428Y-12817524D02*
X12240905Y-12827048D01*
X12240905Y-12827048D02*
X12250428Y-12836571D01*
X12250428Y-12836571D02*
X12259952Y-12827048D01*
X12259952Y-12827048D02*
X12250428Y-12817524D01*
X12250428Y-12817524D02*
X12250428Y-12836571D01*
X12374238Y-13017524D02*
X12355190Y-13008000D01*
X12355190Y-13008000D02*
X12345667Y-12988952D01*
X12345667Y-12988952D02*
X12345667Y-12817524D01*
X12479000Y-13017524D02*
X12459952Y-13008000D01*
X12459952Y-13008000D02*
X12450428Y-12988952D01*
X12450428Y-12988952D02*
X12450428Y-12817524D01*
X12707571Y-13017524D02*
X12707571Y-12817524D01*
X12707571Y-12817524D02*
X12774238Y-12960381D01*
X12774238Y-12960381D02*
X12840905Y-12817524D01*
X12840905Y-12817524D02*
X12840905Y-13017524D01*
X13021857Y-13017524D02*
X13021857Y-12912762D01*
X13021857Y-12912762D02*
X13012333Y-12893714D01*
X13012333Y-12893714D02*
X12993286Y-12884190D01*
X12993286Y-12884190D02*
X12955190Y-12884190D01*
X12955190Y-12884190D02*
X12936143Y-12893714D01*
X13021857Y-13008000D02*
X13002809Y-13017524D01*
X13002809Y-13017524D02*
X12955190Y-13017524D01*
X12955190Y-13017524D02*
X12936143Y-13008000D01*
X12936143Y-13008000D02*
X12926619Y-12988952D01*
X12926619Y-12988952D02*
X12926619Y-12969905D01*
X12926619Y-12969905D02*
X12936143Y-12950857D01*
X12936143Y-12950857D02*
X12955190Y-12941333D01*
X12955190Y-12941333D02*
X13002809Y-12941333D01*
X13002809Y-12941333D02*
X13021857Y-12931809D01*
X13117095Y-12884190D02*
X13117095Y-13084190D01*
X13117095Y-12893714D02*
X13136143Y-12884190D01*
X13136143Y-12884190D02*
X13174238Y-12884190D01*
X13174238Y-12884190D02*
X13193286Y-12893714D01*
X13193286Y-12893714D02*
X13202809Y-12903238D01*
X13202809Y-12903238D02*
X13212333Y-12922286D01*
X13212333Y-12922286D02*
X13212333Y-12979428D01*
X13212333Y-12979428D02*
X13202809Y-12998476D01*
X13202809Y-12998476D02*
X13193286Y-13008000D01*
X13193286Y-13008000D02*
X13174238Y-13017524D01*
X13174238Y-13017524D02*
X13136143Y-13017524D01*
X13136143Y-13017524D02*
X13117095Y-13008000D01*
X13298048Y-12998476D02*
X13307571Y-13008000D01*
X13307571Y-13008000D02*
X13298048Y-13017524D01*
X13298048Y-13017524D02*
X13288524Y-13008000D01*
X13288524Y-13008000D02*
X13298048Y-12998476D01*
X13298048Y-12998476D02*
X13298048Y-13017524D01*
X13298048Y-12893714D02*
X13307571Y-12903238D01*
X13307571Y-12903238D02*
X13298048Y-12912762D01*
X13298048Y-12912762D02*
X13288524Y-12903238D01*
X13288524Y-12903238D02*
X13298048Y-12893714D01*
X13298048Y-12893714D02*
X13298048Y-12912762D01*
D10*
X11579000Y-13295000D02*
X11679000Y-13395000D01*
X11679000Y-13295000D02*
X11579000Y-13395000D01*
D11*
X12031381Y-13437524D02*
X11917095Y-13437524D01*
X11974238Y-13437524D02*
X11974238Y-13237524D01*
X11974238Y-13237524D02*
X11955190Y-13266095D01*
X11955190Y-13266095D02*
X11936143Y-13285143D01*
X11936143Y-13285143D02*
X11917095Y-13294667D01*
X12117095Y-13418476D02*
X12126619Y-13428000D01*
X12126619Y-13428000D02*
X12117095Y-13437524D01*
X12117095Y-13437524D02*
X12107571Y-13428000D01*
X12107571Y-13428000D02*
X12117095Y-13418476D01*
X12117095Y-13418476D02*
X12117095Y-13437524D01*
X12250428Y-13237524D02*
X12269476Y-13237524D01*
X12269476Y-13237524D02*
X12288524Y-13247048D01*
X12288524Y-13247048D02*
X12298048Y-13256571D01*
X12298048Y-13256571D02*
X12307571Y-13275619D01*
X12307571Y-13275619D02*
X12317095Y-13313714D01*
X12317095Y-13313714D02*
X12317095Y-13361333D01*
X12317095Y-13361333D02*
X12307571Y-13399428D01*
X12307571Y-13399428D02*
X12298048Y-13418476D01*
X12298048Y-13418476D02*
X12288524Y-13428000D01*
X12288524Y-13428000D02*
X12269476Y-13437524D01*
X12269476Y-13437524D02*
X12250428Y-13437524D01*
X12250428Y-13437524D02*
X12231381Y-13428000D01*
X12231381Y-13428000D02*
X12221857Y-13418476D01*
X12221857Y-13418476D02*
X12212333Y-13399428D01*
X12212333Y-13399428D02*
X12202809Y-13361333D01*
X12202809Y-13361333D02*
X12202809Y-13313714D01*
X12202809Y-13313714D02*
X12212333Y-13275619D01*
X12212333Y-13275619D02*
X12221857Y-13256571D01*
X12221857Y-13256571D02*
X12231381Y-13247048D01*
X12231381Y-13247048D02*
X12250428Y-13237524D01*
X12440905Y-13237524D02*
X12459952Y-13237524D01*
X12459952Y-13237524D02*
X12479000Y-13247048D01*
X12479000Y-13247048D02*
X12488524Y-13256571D01*
X12488524Y-13256571D02*
X12498048Y-13275619D01*
X12498048Y-13275619D02*
X12507571Y-13313714D01*
X12507571Y-13313714D02*
X12507571Y-13361333D01*
X12507571Y-13361333D02*
X12498048Y-13399428D01*
X12498048Y-13399428D02*
X12488524Y-13418476D01*
X12488524Y-13418476D02*
X12479000Y-13428000D01*
X12479000Y-13428000D02*
X12459952Y-13437524D01*
X12459952Y-13437524D02*
X12440905Y-13437524D01*
X12440905Y-13437524D02*
X12421857Y-13428000D01*
X12421857Y-13428000D02*
X12412333Y-13418476D01*
X12412333Y-13418476D02*
X12402809Y-13399428D01*
X12402809Y-13399428D02*
X12393286Y-13361333D01*
X12393286Y-13361333D02*
X12393286Y-13313714D01*
X12393286Y-13313714D02*
X12402809Y-13275619D01*
X12402809Y-13275619D02*
X12412333Y-13256571D01*
X12412333Y-13256571D02*
X12421857Y-13247048D01*
X12421857Y-13247048D02*
X12440905Y-13237524D01*
X12631381Y-13237524D02*
X12650429Y-13237524D01*
X12650429Y-13237524D02*
X12669476Y-13247048D01*
X12669476Y-13247048D02*
X12679000Y-13256571D01*
X12679000Y-13256571D02*
X12688524Y-13275619D01*
X12688524Y-13275619D02*
X12698048Y-13313714D01*
X12698048Y-13313714D02*
X12698048Y-13361333D01*
X12698048Y-13361333D02*
X12688524Y-13399428D01*
X12688524Y-13399428D02*
X12679000Y-13418476D01*
X12679000Y-13418476D02*
X12669476Y-13428000D01*
X12669476Y-13428000D02*
X12650429Y-13437524D01*
X12650429Y-13437524D02*
X12631381Y-13437524D01*
X12631381Y-13437524D02*
X12612333Y-13428000D01*
X12612333Y-13428000D02*
X12602809Y-13418476D01*
X12602809Y-13418476D02*
X12593286Y-13399428D01*
X12593286Y-13399428D02*
X12583762Y-13361333D01*
X12583762Y-13361333D02*
X12583762Y-13313714D01*
X12583762Y-13313714D02*
X12593286Y-13275619D01*
X12593286Y-13275619D02*
X12602809Y-13256571D01*
X12602809Y-13256571D02*
X12612333Y-13247048D01*
X12612333Y-13247048D02*
X12631381Y-13237524D01*
X12783762Y-13437524D02*
X12783762Y-13304190D01*
X12783762Y-13323238D02*
X12793286Y-13313714D01*
X12793286Y-13313714D02*
X12812333Y-13304190D01*
X12812333Y-13304190D02*
X12840905Y-13304190D01*
X12840905Y-13304190D02*
X12859952Y-13313714D01*
X12859952Y-13313714D02*
X12869476Y-13332762D01*
X12869476Y-13332762D02*
X12869476Y-13437524D01*
X12869476Y-13332762D02*
X12879000Y-13313714D01*
X12879000Y-13313714D02*
X12898048Y-13304190D01*
X12898048Y-13304190D02*
X12926619Y-13304190D01*
X12926619Y-13304190D02*
X12945667Y-13313714D01*
X12945667Y-13313714D02*
X12955190Y-13332762D01*
X12955190Y-13332762D02*
X12955190Y-13437524D01*
X13050429Y-13437524D02*
X13050429Y-13304190D01*
X13050429Y-13323238D02*
X13059952Y-13313714D01*
X13059952Y-13313714D02*
X13079000Y-13304190D01*
X13079000Y-13304190D02*
X13107571Y-13304190D01*
X13107571Y-13304190D02*
X13126619Y-13313714D01*
X13126619Y-13313714D02*
X13136143Y-13332762D01*
X13136143Y-13332762D02*
X13136143Y-13437524D01*
X13136143Y-13332762D02*
X13145667Y-13313714D01*
X13145667Y-13313714D02*
X13164714Y-13304190D01*
X13164714Y-13304190D02*
X13193286Y-13304190D01*
X13193286Y-13304190D02*
X13212333Y-13313714D01*
X13212333Y-13313714D02*
X13221857Y-13332762D01*
X13221857Y-13332762D02*
X13221857Y-13437524D01*
X13612333Y-13228000D02*
X13440905Y-13485143D01*
X13869476Y-13237524D02*
X13888524Y-13237524D01*
X13888524Y-13237524D02*
X13907572Y-13247048D01*
X13907572Y-13247048D02*
X13917095Y-13256571D01*
X13917095Y-13256571D02*
X13926619Y-13275619D01*
X13926619Y-13275619D02*
X13936143Y-13313714D01*
X13936143Y-13313714D02*
X13936143Y-13361333D01*
X13936143Y-13361333D02*
X13926619Y-13399428D01*
X13926619Y-13399428D02*
X13917095Y-13418476D01*
X13917095Y-13418476D02*
X13907572Y-13428000D01*
X13907572Y-13428000D02*
X13888524Y-13437524D01*
X13888524Y-13437524D02*
X13869476Y-13437524D01*
X13869476Y-13437524D02*
X13850429Y-13428000D01*
X13850429Y-13428000D02*
X13840905Y-13418476D01*
X13840905Y-13418476D02*
X13831381Y-13399428D01*
X13831381Y-13399428D02*
X13821857Y-13361333D01*
X13821857Y-13361333D02*
X13821857Y-13313714D01*
X13821857Y-13313714D02*
X13831381Y-13275619D01*
X13831381Y-13275619D02*
X13840905Y-13256571D01*
X13840905Y-13256571D02*
X13850429Y-13247048D01*
X13850429Y-13247048D02*
X13869476Y-13237524D01*
X14021857Y-13418476D02*
X14031381Y-13428000D01*
X14031381Y-13428000D02*
X14021857Y-13437524D01*
X14021857Y-13437524D02*
X14012333Y-13428000D01*
X14012333Y-13428000D02*
X14021857Y-13418476D01*
X14021857Y-13418476D02*
X14021857Y-13437524D01*
X14155191Y-13237524D02*
X14174238Y-13237524D01*
X14174238Y-13237524D02*
X14193286Y-13247048D01*
X14193286Y-13247048D02*
X14202810Y-13256571D01*
X14202810Y-13256571D02*
X14212333Y-13275619D01*
X14212333Y-13275619D02*
X14221857Y-13313714D01*
X14221857Y-13313714D02*
X14221857Y-13361333D01*
X14221857Y-13361333D02*
X14212333Y-13399428D01*
X14212333Y-13399428D02*
X14202810Y-13418476D01*
X14202810Y-13418476D02*
X14193286Y-13428000D01*
X14193286Y-13428000D02*
X14174238Y-13437524D01*
X14174238Y-13437524D02*
X14155191Y-13437524D01*
X14155191Y-13437524D02*
X14136143Y-13428000D01*
X14136143Y-13428000D02*
X14126619Y-13418476D01*
X14126619Y-13418476D02*
X14117095Y-13399428D01*
X14117095Y-13399428D02*
X14107572Y-13361333D01*
X14107572Y-13361333D02*
X14107572Y-13313714D01*
X14107572Y-13313714D02*
X14117095Y-13275619D01*
X14117095Y-13275619D02*
X14126619Y-13256571D01*
X14126619Y-13256571D02*
X14136143Y-13247048D01*
X14136143Y-13247048D02*
X14155191Y-13237524D01*
X14288524Y-13237524D02*
X14412333Y-13237524D01*
X14412333Y-13237524D02*
X14345667Y-13313714D01*
X14345667Y-13313714D02*
X14374238Y-13313714D01*
X14374238Y-13313714D02*
X14393286Y-13323238D01*
X14393286Y-13323238D02*
X14402810Y-13332762D01*
X14402810Y-13332762D02*
X14412333Y-13351809D01*
X14412333Y-13351809D02*
X14412333Y-13399428D01*
X14412333Y-13399428D02*
X14402810Y-13418476D01*
X14402810Y-13418476D02*
X14393286Y-13428000D01*
X14393286Y-13428000D02*
X14374238Y-13437524D01*
X14374238Y-13437524D02*
X14317095Y-13437524D01*
X14317095Y-13437524D02*
X14298048Y-13428000D01*
X14298048Y-13428000D02*
X14288524Y-13418476D01*
X14507572Y-13437524D02*
X14545667Y-13437524D01*
X14545667Y-13437524D02*
X14564714Y-13428000D01*
X14564714Y-13428000D02*
X14574238Y-13418476D01*
X14574238Y-13418476D02*
X14593286Y-13389905D01*
X14593286Y-13389905D02*
X14602810Y-13351809D01*
X14602810Y-13351809D02*
X14602810Y-13275619D01*
X14602810Y-13275619D02*
X14593286Y-13256571D01*
X14593286Y-13256571D02*
X14583762Y-13247048D01*
X14583762Y-13247048D02*
X14564714Y-13237524D01*
X14564714Y-13237524D02*
X14526619Y-13237524D01*
X14526619Y-13237524D02*
X14507572Y-13247048D01*
X14507572Y-13247048D02*
X14498048Y-13256571D01*
X14498048Y-13256571D02*
X14488524Y-13275619D01*
X14488524Y-13275619D02*
X14488524Y-13323238D01*
X14488524Y-13323238D02*
X14498048Y-13342286D01*
X14498048Y-13342286D02*
X14507572Y-13351809D01*
X14507572Y-13351809D02*
X14526619Y-13361333D01*
X14526619Y-13361333D02*
X14564714Y-13361333D01*
X14564714Y-13361333D02*
X14583762Y-13351809D01*
X14583762Y-13351809D02*
X14593286Y-13342286D01*
X14593286Y-13342286D02*
X14602810Y-13323238D01*
X14774238Y-13304190D02*
X14774238Y-13437524D01*
X14726619Y-13228000D02*
X14679000Y-13370857D01*
X14679000Y-13370857D02*
X14802810Y-13370857D01*
X14869476Y-13237524D02*
X14869476Y-13275619D01*
X14945667Y-13237524D02*
X14945667Y-13275619D01*
X15240905Y-13513714D02*
X15231381Y-13504190D01*
X15231381Y-13504190D02*
X15212334Y-13475619D01*
X15212334Y-13475619D02*
X15202810Y-13456571D01*
X15202810Y-13456571D02*
X15193286Y-13428000D01*
X15193286Y-13428000D02*
X15183762Y-13380381D01*
X15183762Y-13380381D02*
X15183762Y-13342286D01*
X15183762Y-13342286D02*
X15193286Y-13294667D01*
X15193286Y-13294667D02*
X15202810Y-13266095D01*
X15202810Y-13266095D02*
X15212334Y-13247048D01*
X15212334Y-13247048D02*
X15231381Y-13218476D01*
X15231381Y-13218476D02*
X15240905Y-13208952D01*
X15307572Y-13256571D02*
X15317095Y-13247048D01*
X15317095Y-13247048D02*
X15336143Y-13237524D01*
X15336143Y-13237524D02*
X15383762Y-13237524D01*
X15383762Y-13237524D02*
X15402810Y-13247048D01*
X15402810Y-13247048D02*
X15412334Y-13256571D01*
X15412334Y-13256571D02*
X15421857Y-13275619D01*
X15421857Y-13275619D02*
X15421857Y-13294667D01*
X15421857Y-13294667D02*
X15412334Y-13323238D01*
X15412334Y-13323238D02*
X15298048Y-13437524D01*
X15298048Y-13437524D02*
X15421857Y-13437524D01*
X15593286Y-13304190D02*
X15593286Y-13437524D01*
X15545667Y-13228000D02*
X15498048Y-13370857D01*
X15498048Y-13370857D02*
X15621857Y-13370857D01*
X15850429Y-13437524D02*
X15850429Y-13237524D01*
X15936143Y-13437524D02*
X15936143Y-13332762D01*
X15936143Y-13332762D02*
X15926619Y-13313714D01*
X15926619Y-13313714D02*
X15907572Y-13304190D01*
X15907572Y-13304190D02*
X15879000Y-13304190D01*
X15879000Y-13304190D02*
X15859953Y-13313714D01*
X15859953Y-13313714D02*
X15850429Y-13323238D01*
X16059953Y-13437524D02*
X16040905Y-13428000D01*
X16040905Y-13428000D02*
X16031381Y-13418476D01*
X16031381Y-13418476D02*
X16021857Y-13399428D01*
X16021857Y-13399428D02*
X16021857Y-13342286D01*
X16021857Y-13342286D02*
X16031381Y-13323238D01*
X16031381Y-13323238D02*
X16040905Y-13313714D01*
X16040905Y-13313714D02*
X16059953Y-13304190D01*
X16059953Y-13304190D02*
X16088524Y-13304190D01*
X16088524Y-13304190D02*
X16107572Y-13313714D01*
X16107572Y-13313714D02*
X16117096Y-13323238D01*
X16117096Y-13323238D02*
X16126619Y-13342286D01*
X16126619Y-13342286D02*
X16126619Y-13399428D01*
X16126619Y-13399428D02*
X16117096Y-13418476D01*
X16117096Y-13418476D02*
X16107572Y-13428000D01*
X16107572Y-13428000D02*
X16088524Y-13437524D01*
X16088524Y-13437524D02*
X16059953Y-13437524D01*
X16240905Y-13437524D02*
X16221857Y-13428000D01*
X16221857Y-13428000D02*
X16212334Y-13408952D01*
X16212334Y-13408952D02*
X16212334Y-13237524D01*
X16393286Y-13428000D02*
X16374238Y-13437524D01*
X16374238Y-13437524D02*
X16336143Y-13437524D01*
X16336143Y-13437524D02*
X16317096Y-13428000D01*
X16317096Y-13428000D02*
X16307572Y-13408952D01*
X16307572Y-13408952D02*
X16307572Y-13332762D01*
X16307572Y-13332762D02*
X16317096Y-13313714D01*
X16317096Y-13313714D02*
X16336143Y-13304190D01*
X16336143Y-13304190D02*
X16374238Y-13304190D01*
X16374238Y-13304190D02*
X16393286Y-13313714D01*
X16393286Y-13313714D02*
X16402810Y-13332762D01*
X16402810Y-13332762D02*
X16402810Y-13351809D01*
X16402810Y-13351809D02*
X16307572Y-13370857D01*
X16479000Y-13428000D02*
X16498048Y-13437524D01*
X16498048Y-13437524D02*
X16536143Y-13437524D01*
X16536143Y-13437524D02*
X16555191Y-13428000D01*
X16555191Y-13428000D02*
X16564715Y-13408952D01*
X16564715Y-13408952D02*
X16564715Y-13399428D01*
X16564715Y-13399428D02*
X16555191Y-13380381D01*
X16555191Y-13380381D02*
X16536143Y-13370857D01*
X16536143Y-13370857D02*
X16507572Y-13370857D01*
X16507572Y-13370857D02*
X16488524Y-13361333D01*
X16488524Y-13361333D02*
X16479000Y-13342286D01*
X16479000Y-13342286D02*
X16479000Y-13332762D01*
X16479000Y-13332762D02*
X16488524Y-13313714D01*
X16488524Y-13313714D02*
X16507572Y-13304190D01*
X16507572Y-13304190D02*
X16536143Y-13304190D01*
X16536143Y-13304190D02*
X16555191Y-13313714D01*
X16631381Y-13513714D02*
X16640905Y-13504190D01*
X16640905Y-13504190D02*
X16659953Y-13475619D01*
X16659953Y-13475619D02*
X16669477Y-13456571D01*
X16669477Y-13456571D02*
X16679000Y-13428000D01*
X16679000Y-13428000D02*
X16688524Y-13380381D01*
X16688524Y-13380381D02*
X16688524Y-13342286D01*
X16688524Y-13342286D02*
X16679000Y-13294667D01*
X16679000Y-13294667D02*
X16669477Y-13266095D01*
X16669477Y-13266095D02*
X16659953Y-13247048D01*
X16659953Y-13247048D02*
X16640905Y-13218476D01*
X16640905Y-13218476D02*
X16631381Y-13208952D01*
D12*
X11679000Y-13609000D02*
G75*
G03*
X11679000Y-13609000I-65000J0D01*
G01*
D11*
X12031381Y-13701524D02*
X11917095Y-13701524D01*
X11974238Y-13701524D02*
X11974238Y-13501524D01*
X11974238Y-13501524D02*
X11955190Y-13530095D01*
X11955190Y-13530095D02*
X11936143Y-13549143D01*
X11936143Y-13549143D02*
X11917095Y-13558667D01*
X12117095Y-13682476D02*
X12126619Y-13692000D01*
X12126619Y-13692000D02*
X12117095Y-13701524D01*
X12117095Y-13701524D02*
X12107571Y-13692000D01*
X12107571Y-13692000D02*
X12117095Y-13682476D01*
X12117095Y-13682476D02*
X12117095Y-13701524D01*
X12193286Y-13501524D02*
X12317095Y-13501524D01*
X12317095Y-13501524D02*
X12250428Y-13577714D01*
X12250428Y-13577714D02*
X12279000Y-13577714D01*
X12279000Y-13577714D02*
X12298048Y-13587238D01*
X12298048Y-13587238D02*
X12307571Y-13596762D01*
X12307571Y-13596762D02*
X12317095Y-13615809D01*
X12317095Y-13615809D02*
X12317095Y-13663428D01*
X12317095Y-13663428D02*
X12307571Y-13682476D01*
X12307571Y-13682476D02*
X12298048Y-13692000D01*
X12298048Y-13692000D02*
X12279000Y-13701524D01*
X12279000Y-13701524D02*
X12221857Y-13701524D01*
X12221857Y-13701524D02*
X12202809Y-13692000D01*
X12202809Y-13692000D02*
X12193286Y-13682476D01*
X12440905Y-13501524D02*
X12459952Y-13501524D01*
X12459952Y-13501524D02*
X12479000Y-13511048D01*
X12479000Y-13511048D02*
X12488524Y-13520571D01*
X12488524Y-13520571D02*
X12498048Y-13539619D01*
X12498048Y-13539619D02*
X12507571Y-13577714D01*
X12507571Y-13577714D02*
X12507571Y-13625333D01*
X12507571Y-13625333D02*
X12498048Y-13663428D01*
X12498048Y-13663428D02*
X12488524Y-13682476D01*
X12488524Y-13682476D02*
X12479000Y-13692000D01*
X12479000Y-13692000D02*
X12459952Y-13701524D01*
X12459952Y-13701524D02*
X12440905Y-13701524D01*
X12440905Y-13701524D02*
X12421857Y-13692000D01*
X12421857Y-13692000D02*
X12412333Y-13682476D01*
X12412333Y-13682476D02*
X12402809Y-13663428D01*
X12402809Y-13663428D02*
X12393286Y-13625333D01*
X12393286Y-13625333D02*
X12393286Y-13577714D01*
X12393286Y-13577714D02*
X12402809Y-13539619D01*
X12402809Y-13539619D02*
X12412333Y-13520571D01*
X12412333Y-13520571D02*
X12421857Y-13511048D01*
X12421857Y-13511048D02*
X12440905Y-13501524D01*
X12631381Y-13501524D02*
X12650429Y-13501524D01*
X12650429Y-13501524D02*
X12669476Y-13511048D01*
X12669476Y-13511048D02*
X12679000Y-13520571D01*
X12679000Y-13520571D02*
X12688524Y-13539619D01*
X12688524Y-13539619D02*
X12698048Y-13577714D01*
X12698048Y-13577714D02*
X12698048Y-13625333D01*
X12698048Y-13625333D02*
X12688524Y-13663428D01*
X12688524Y-13663428D02*
X12679000Y-13682476D01*
X12679000Y-13682476D02*
X12669476Y-13692000D01*
X12669476Y-13692000D02*
X12650429Y-13701524D01*
X12650429Y-13701524D02*
X12631381Y-13701524D01*
X12631381Y-13701524D02*
X12612333Y-13692000D01*
X12612333Y-13692000D02*
X12602809Y-13682476D01*
X12602809Y-13682476D02*
X12593286Y-13663428D01*
X12593286Y-13663428D02*
X12583762Y-13625333D01*
X12583762Y-13625333D02*
X12583762Y-13577714D01*
X12583762Y-13577714D02*
X12593286Y-13539619D01*
X12593286Y-13539619D02*
X12602809Y-13520571D01*
X12602809Y-13520571D02*
X12612333Y-13511048D01*
X12612333Y-13511048D02*
X12631381Y-13501524D01*
X12783762Y-13701524D02*
X12783762Y-13568190D01*
X12783762Y-13587238D02*
X12793286Y-13577714D01*
X12793286Y-13577714D02*
X12812333Y-13568190D01*
X12812333Y-13568190D02*
X12840905Y-13568190D01*
X12840905Y-13568190D02*
X12859952Y-13577714D01*
X12859952Y-13577714D02*
X12869476Y-13596762D01*
X12869476Y-13596762D02*
X12869476Y-13701524D01*
X12869476Y-13596762D02*
X12879000Y-13577714D01*
X12879000Y-13577714D02*
X12898048Y-13568190D01*
X12898048Y-13568190D02*
X12926619Y-13568190D01*
X12926619Y-13568190D02*
X12945667Y-13577714D01*
X12945667Y-13577714D02*
X12955190Y-13596762D01*
X12955190Y-13596762D02*
X12955190Y-13701524D01*
X13050429Y-13701524D02*
X13050429Y-13568190D01*
X13050429Y-13587238D02*
X13059952Y-13577714D01*
X13059952Y-13577714D02*
X13079000Y-13568190D01*
X13079000Y-13568190D02*
X13107571Y-13568190D01*
X13107571Y-13568190D02*
X13126619Y-13577714D01*
X13126619Y-13577714D02*
X13136143Y-13596762D01*
X13136143Y-13596762D02*
X13136143Y-13701524D01*
X13136143Y-13596762D02*
X13145667Y-13577714D01*
X13145667Y-13577714D02*
X13164714Y-13568190D01*
X13164714Y-13568190D02*
X13193286Y-13568190D01*
X13193286Y-13568190D02*
X13212333Y-13577714D01*
X13212333Y-13577714D02*
X13221857Y-13596762D01*
X13221857Y-13596762D02*
X13221857Y-13701524D01*
X13612333Y-13492000D02*
X13440905Y-13749143D01*
X13869476Y-13501524D02*
X13888524Y-13501524D01*
X13888524Y-13501524D02*
X13907572Y-13511048D01*
X13907572Y-13511048D02*
X13917095Y-13520571D01*
X13917095Y-13520571D02*
X13926619Y-13539619D01*
X13926619Y-13539619D02*
X13936143Y-13577714D01*
X13936143Y-13577714D02*
X13936143Y-13625333D01*
X13936143Y-13625333D02*
X13926619Y-13663428D01*
X13926619Y-13663428D02*
X13917095Y-13682476D01*
X13917095Y-13682476D02*
X13907572Y-13692000D01*
X13907572Y-13692000D02*
X13888524Y-13701524D01*
X13888524Y-13701524D02*
X13869476Y-13701524D01*
X13869476Y-13701524D02*
X13850429Y-13692000D01*
X13850429Y-13692000D02*
X13840905Y-13682476D01*
X13840905Y-13682476D02*
X13831381Y-13663428D01*
X13831381Y-13663428D02*
X13821857Y-13625333D01*
X13821857Y-13625333D02*
X13821857Y-13577714D01*
X13821857Y-13577714D02*
X13831381Y-13539619D01*
X13831381Y-13539619D02*
X13840905Y-13520571D01*
X13840905Y-13520571D02*
X13850429Y-13511048D01*
X13850429Y-13511048D02*
X13869476Y-13501524D01*
X14021857Y-13682476D02*
X14031381Y-13692000D01*
X14031381Y-13692000D02*
X14021857Y-13701524D01*
X14021857Y-13701524D02*
X14012333Y-13692000D01*
X14012333Y-13692000D02*
X14021857Y-13682476D01*
X14021857Y-13682476D02*
X14021857Y-13701524D01*
X14155191Y-13501524D02*
X14174238Y-13501524D01*
X14174238Y-13501524D02*
X14193286Y-13511048D01*
X14193286Y-13511048D02*
X14202810Y-13520571D01*
X14202810Y-13520571D02*
X14212333Y-13539619D01*
X14212333Y-13539619D02*
X14221857Y-13577714D01*
X14221857Y-13577714D02*
X14221857Y-13625333D01*
X14221857Y-13625333D02*
X14212333Y-13663428D01*
X14212333Y-13663428D02*
X14202810Y-13682476D01*
X14202810Y-13682476D02*
X14193286Y-13692000D01*
X14193286Y-13692000D02*
X14174238Y-13701524D01*
X14174238Y-13701524D02*
X14155191Y-13701524D01*
X14155191Y-13701524D02*
X14136143Y-13692000D01*
X14136143Y-13692000D02*
X14126619Y-13682476D01*
X14126619Y-13682476D02*
X14117095Y-13663428D01*
X14117095Y-13663428D02*
X14107572Y-13625333D01*
X14107572Y-13625333D02*
X14107572Y-13577714D01*
X14107572Y-13577714D02*
X14117095Y-13539619D01*
X14117095Y-13539619D02*
X14126619Y-13520571D01*
X14126619Y-13520571D02*
X14136143Y-13511048D01*
X14136143Y-13511048D02*
X14155191Y-13501524D01*
X14402810Y-13501524D02*
X14307572Y-13501524D01*
X14307572Y-13501524D02*
X14298048Y-13596762D01*
X14298048Y-13596762D02*
X14307572Y-13587238D01*
X14307572Y-13587238D02*
X14326619Y-13577714D01*
X14326619Y-13577714D02*
X14374238Y-13577714D01*
X14374238Y-13577714D02*
X14393286Y-13587238D01*
X14393286Y-13587238D02*
X14402810Y-13596762D01*
X14402810Y-13596762D02*
X14412333Y-13615809D01*
X14412333Y-13615809D02*
X14412333Y-13663428D01*
X14412333Y-13663428D02*
X14402810Y-13682476D01*
X14402810Y-13682476D02*
X14393286Y-13692000D01*
X14393286Y-13692000D02*
X14374238Y-13701524D01*
X14374238Y-13701524D02*
X14326619Y-13701524D01*
X14326619Y-13701524D02*
X14307572Y-13692000D01*
X14307572Y-13692000D02*
X14298048Y-13682476D01*
X14602810Y-13701524D02*
X14488524Y-13701524D01*
X14545667Y-13701524D02*
X14545667Y-13501524D01*
X14545667Y-13501524D02*
X14526619Y-13530095D01*
X14526619Y-13530095D02*
X14507572Y-13549143D01*
X14507572Y-13549143D02*
X14488524Y-13558667D01*
X14679000Y-13520571D02*
X14688524Y-13511048D01*
X14688524Y-13511048D02*
X14707572Y-13501524D01*
X14707572Y-13501524D02*
X14755191Y-13501524D01*
X14755191Y-13501524D02*
X14774238Y-13511048D01*
X14774238Y-13511048D02*
X14783762Y-13520571D01*
X14783762Y-13520571D02*
X14793286Y-13539619D01*
X14793286Y-13539619D02*
X14793286Y-13558667D01*
X14793286Y-13558667D02*
X14783762Y-13587238D01*
X14783762Y-13587238D02*
X14669476Y-13701524D01*
X14669476Y-13701524D02*
X14793286Y-13701524D01*
X14869476Y-13501524D02*
X14869476Y-13539619D01*
X14945667Y-13501524D02*
X14945667Y-13539619D01*
X15240905Y-13777714D02*
X15231381Y-13768190D01*
X15231381Y-13768190D02*
X15212334Y-13739619D01*
X15212334Y-13739619D02*
X15202810Y-13720571D01*
X15202810Y-13720571D02*
X15193286Y-13692000D01*
X15193286Y-13692000D02*
X15183762Y-13644381D01*
X15183762Y-13644381D02*
X15183762Y-13606286D01*
X15183762Y-13606286D02*
X15193286Y-13558667D01*
X15193286Y-13558667D02*
X15202810Y-13530095D01*
X15202810Y-13530095D02*
X15212334Y-13511048D01*
X15212334Y-13511048D02*
X15231381Y-13482476D01*
X15231381Y-13482476D02*
X15240905Y-13472952D01*
X15421857Y-13701524D02*
X15307572Y-13701524D01*
X15364714Y-13701524D02*
X15364714Y-13501524D01*
X15364714Y-13501524D02*
X15345667Y-13530095D01*
X15345667Y-13530095D02*
X15326619Y-13549143D01*
X15326619Y-13549143D02*
X15307572Y-13558667D01*
X15602810Y-13501524D02*
X15507572Y-13501524D01*
X15507572Y-13501524D02*
X15498048Y-13596762D01*
X15498048Y-13596762D02*
X15507572Y-13587238D01*
X15507572Y-13587238D02*
X15526619Y-13577714D01*
X15526619Y-13577714D02*
X15574238Y-13577714D01*
X15574238Y-13577714D02*
X15593286Y-13587238D01*
X15593286Y-13587238D02*
X15602810Y-13596762D01*
X15602810Y-13596762D02*
X15612334Y-13615809D01*
X15612334Y-13615809D02*
X15612334Y-13663428D01*
X15612334Y-13663428D02*
X15602810Y-13682476D01*
X15602810Y-13682476D02*
X15593286Y-13692000D01*
X15593286Y-13692000D02*
X15574238Y-13701524D01*
X15574238Y-13701524D02*
X15526619Y-13701524D01*
X15526619Y-13701524D02*
X15507572Y-13692000D01*
X15507572Y-13692000D02*
X15498048Y-13682476D01*
X15850429Y-13701524D02*
X15850429Y-13501524D01*
X15936143Y-13701524D02*
X15936143Y-13596762D01*
X15936143Y-13596762D02*
X15926619Y-13577714D01*
X15926619Y-13577714D02*
X15907572Y-13568190D01*
X15907572Y-13568190D02*
X15879000Y-13568190D01*
X15879000Y-13568190D02*
X15859953Y-13577714D01*
X15859953Y-13577714D02*
X15850429Y-13587238D01*
X16059953Y-13701524D02*
X16040905Y-13692000D01*
X16040905Y-13692000D02*
X16031381Y-13682476D01*
X16031381Y-13682476D02*
X16021857Y-13663428D01*
X16021857Y-13663428D02*
X16021857Y-13606286D01*
X16021857Y-13606286D02*
X16031381Y-13587238D01*
X16031381Y-13587238D02*
X16040905Y-13577714D01*
X16040905Y-13577714D02*
X16059953Y-13568190D01*
X16059953Y-13568190D02*
X16088524Y-13568190D01*
X16088524Y-13568190D02*
X16107572Y-13577714D01*
X16107572Y-13577714D02*
X16117096Y-13587238D01*
X16117096Y-13587238D02*
X16126619Y-13606286D01*
X16126619Y-13606286D02*
X16126619Y-13663428D01*
X16126619Y-13663428D02*
X16117096Y-13682476D01*
X16117096Y-13682476D02*
X16107572Y-13692000D01*
X16107572Y-13692000D02*
X16088524Y-13701524D01*
X16088524Y-13701524D02*
X16059953Y-13701524D01*
X16240905Y-13701524D02*
X16221857Y-13692000D01*
X16221857Y-13692000D02*
X16212334Y-13672952D01*
X16212334Y-13672952D02*
X16212334Y-13501524D01*
X16393286Y-13692000D02*
X16374238Y-13701524D01*
X16374238Y-13701524D02*
X16336143Y-13701524D01*
X16336143Y-13701524D02*
X16317096Y-13692000D01*
X16317096Y-13692000D02*
X16307572Y-13672952D01*
X16307572Y-13672952D02*
X16307572Y-13596762D01*
X16307572Y-13596762D02*
X16317096Y-13577714D01*
X16317096Y-13577714D02*
X16336143Y-13568190D01*
X16336143Y-13568190D02*
X16374238Y-13568190D01*
X16374238Y-13568190D02*
X16393286Y-13577714D01*
X16393286Y-13577714D02*
X16402810Y-13596762D01*
X16402810Y-13596762D02*
X16402810Y-13615809D01*
X16402810Y-13615809D02*
X16307572Y-13634857D01*
X16479000Y-13692000D02*
X16498048Y-13701524D01*
X16498048Y-13701524D02*
X16536143Y-13701524D01*
X16536143Y-13701524D02*
X16555191Y-13692000D01*
X16555191Y-13692000D02*
X16564715Y-13672952D01*
X16564715Y-13672952D02*
X16564715Y-13663428D01*
X16564715Y-13663428D02*
X16555191Y-13644381D01*
X16555191Y-13644381D02*
X16536143Y-13634857D01*
X16536143Y-13634857D02*
X16507572Y-13634857D01*
X16507572Y-13634857D02*
X16488524Y-13625333D01*
X16488524Y-13625333D02*
X16479000Y-13606286D01*
X16479000Y-13606286D02*
X16479000Y-13596762D01*
X16479000Y-13596762D02*
X16488524Y-13577714D01*
X16488524Y-13577714D02*
X16507572Y-13568190D01*
X16507572Y-13568190D02*
X16536143Y-13568190D01*
X16536143Y-13568190D02*
X16555191Y-13577714D01*
X16631381Y-13777714D02*
X16640905Y-13768190D01*
X16640905Y-13768190D02*
X16659953Y-13739619D01*
X16659953Y-13739619D02*
X16669477Y-13720571D01*
X16669477Y-13720571D02*
X16679000Y-13692000D01*
X16679000Y-13692000D02*
X16688524Y-13644381D01*
X16688524Y-13644381D02*
X16688524Y-13606286D01*
X16688524Y-13606286D02*
X16679000Y-13558667D01*
X16679000Y-13558667D02*
X16669477Y-13530095D01*
X16669477Y-13530095D02*
X16659953Y-13511048D01*
X16659953Y-13511048D02*
X16640905Y-13482476D01*
X16640905Y-13482476D02*
X16631381Y-13472952D01*
M02*
