%TF.GenerationSoftware,KiCad,Pcbnew,7.0.2*%
%TF.CreationDate,2023-04-24T21:00:11-04:00*%
%TF.ProjectId,JTAG_Terminal_Block,4a544147-5f54-4657-926d-696e616c5f42,rev?*%
%TF.SameCoordinates,Original*%
%TF.FileFunction,Drillmap*%
%TF.FilePolarity,Positive*%
%FSLAX45Y45*%
G04 Gerber Fmt 4.5, Leading zero omitted, Abs format (unit mm)*
G04 Created by KiCad (PCBNEW 7.0.2) date 2023-04-24 21:00:11*
%MOMM*%
%LPD*%
G01*
G04 APERTURE LIST*
%ADD10C,0.100000*%
%ADD11C,0.200000*%
G04 APERTURE END LIST*
D10*
X17526000Y-12700000D02*
G75*
G03*
X17780000Y-12446000I0J254000D01*
G01*
X13462000Y-12446000D02*
G75*
G03*
X13716000Y-12700000I254000J0D01*
G01*
X17780000Y-3302000D02*
G75*
G03*
X17526000Y-3048000I-254000J0D01*
G01*
X13716000Y-3048000D02*
G75*
G03*
X13462000Y-3302000I0J-254000D01*
G01*
X17780000Y-12446000D02*
X17780000Y-3302000D01*
X13716000Y-12700000D02*
X17526000Y-12700000D01*
X13462000Y-3302000D02*
X13462000Y-12446000D01*
X17526000Y-3048000D02*
X13716000Y-3048000D01*
D11*
X13704619Y-13017524D02*
X13704619Y-12817524D01*
X13704619Y-12817524D02*
X13752238Y-12817524D01*
X13752238Y-12817524D02*
X13780809Y-12827048D01*
X13780809Y-12827048D02*
X13799857Y-12846095D01*
X13799857Y-12846095D02*
X13809381Y-12865143D01*
X13809381Y-12865143D02*
X13818905Y-12903238D01*
X13818905Y-12903238D02*
X13818905Y-12931809D01*
X13818905Y-12931809D02*
X13809381Y-12969905D01*
X13809381Y-12969905D02*
X13799857Y-12988952D01*
X13799857Y-12988952D02*
X13780809Y-13008000D01*
X13780809Y-13008000D02*
X13752238Y-13017524D01*
X13752238Y-13017524D02*
X13704619Y-13017524D01*
X13904619Y-13017524D02*
X13904619Y-12884190D01*
X13904619Y-12922286D02*
X13914143Y-12903238D01*
X13914143Y-12903238D02*
X13923667Y-12893714D01*
X13923667Y-12893714D02*
X13942714Y-12884190D01*
X13942714Y-12884190D02*
X13961762Y-12884190D01*
X14028428Y-13017524D02*
X14028428Y-12884190D01*
X14028428Y-12817524D02*
X14018905Y-12827048D01*
X14018905Y-12827048D02*
X14028428Y-12836571D01*
X14028428Y-12836571D02*
X14037952Y-12827048D01*
X14037952Y-12827048D02*
X14028428Y-12817524D01*
X14028428Y-12817524D02*
X14028428Y-12836571D01*
X14152238Y-13017524D02*
X14133190Y-13008000D01*
X14133190Y-13008000D02*
X14123667Y-12988952D01*
X14123667Y-12988952D02*
X14123667Y-12817524D01*
X14257000Y-13017524D02*
X14237952Y-13008000D01*
X14237952Y-13008000D02*
X14228428Y-12988952D01*
X14228428Y-12988952D02*
X14228428Y-12817524D01*
X14485571Y-13017524D02*
X14485571Y-12817524D01*
X14485571Y-12817524D02*
X14552238Y-12960381D01*
X14552238Y-12960381D02*
X14618905Y-12817524D01*
X14618905Y-12817524D02*
X14618905Y-13017524D01*
X14799857Y-13017524D02*
X14799857Y-12912762D01*
X14799857Y-12912762D02*
X14790333Y-12893714D01*
X14790333Y-12893714D02*
X14771286Y-12884190D01*
X14771286Y-12884190D02*
X14733190Y-12884190D01*
X14733190Y-12884190D02*
X14714143Y-12893714D01*
X14799857Y-13008000D02*
X14780809Y-13017524D01*
X14780809Y-13017524D02*
X14733190Y-13017524D01*
X14733190Y-13017524D02*
X14714143Y-13008000D01*
X14714143Y-13008000D02*
X14704619Y-12988952D01*
X14704619Y-12988952D02*
X14704619Y-12969905D01*
X14704619Y-12969905D02*
X14714143Y-12950857D01*
X14714143Y-12950857D02*
X14733190Y-12941333D01*
X14733190Y-12941333D02*
X14780809Y-12941333D01*
X14780809Y-12941333D02*
X14799857Y-12931809D01*
X14895095Y-12884190D02*
X14895095Y-13084190D01*
X14895095Y-12893714D02*
X14914143Y-12884190D01*
X14914143Y-12884190D02*
X14952238Y-12884190D01*
X14952238Y-12884190D02*
X14971286Y-12893714D01*
X14971286Y-12893714D02*
X14980809Y-12903238D01*
X14980809Y-12903238D02*
X14990333Y-12922286D01*
X14990333Y-12922286D02*
X14990333Y-12979428D01*
X14990333Y-12979428D02*
X14980809Y-12998476D01*
X14980809Y-12998476D02*
X14971286Y-13008000D01*
X14971286Y-13008000D02*
X14952238Y-13017524D01*
X14952238Y-13017524D02*
X14914143Y-13017524D01*
X14914143Y-13017524D02*
X14895095Y-13008000D01*
X15076048Y-12998476D02*
X15085571Y-13008000D01*
X15085571Y-13008000D02*
X15076048Y-13017524D01*
X15076048Y-13017524D02*
X15066524Y-13008000D01*
X15066524Y-13008000D02*
X15076048Y-12998476D01*
X15076048Y-12998476D02*
X15076048Y-13017524D01*
X15076048Y-12893714D02*
X15085571Y-12903238D01*
X15085571Y-12903238D02*
X15076048Y-12912762D01*
X15076048Y-12912762D02*
X15066524Y-12903238D01*
X15066524Y-12903238D02*
X15076048Y-12893714D01*
X15076048Y-12893714D02*
X15076048Y-12912762D01*
M02*
