%TF.GenerationSoftware,KiCad,Pcbnew,7.0.2*%
%TF.CreationDate,2023-04-24T21:00:06-04:00*%
%TF.ProjectId,JTAG_Terminal_Block,4a544147-5f54-4657-926d-696e616c5f42,rev?*%
%TF.SameCoordinates,Original*%
%TF.FileFunction,Copper,L1,Top*%
%TF.FilePolarity,Positive*%
%FSLAX46Y46*%
G04 Gerber Fmt 4.6, Leading zero omitted, Abs format (unit mm)*
G04 Created by KiCad (PCBNEW 7.0.2) date 2023-04-24 21:00:06*
%MOMM*%
%LPD*%
G01*
G04 APERTURE LIST*
G04 Aperture macros list*
%AMRoundRect*
0 Rectangle with rounded corners*
0 $1 Rounding radius*
0 $2 $3 $4 $5 $6 $7 $8 $9 X,Y pos of 4 corners*
0 Add a 4 corners polygon primitive as box body*
4,1,4,$2,$3,$4,$5,$6,$7,$8,$9,$2,$3,0*
0 Add four circle primitives for the rounded corners*
1,1,$1+$1,$2,$3*
1,1,$1+$1,$4,$5*
1,1,$1+$1,$6,$7*
1,1,$1+$1,$8,$9*
0 Add four rect primitives between the rounded corners*
20,1,$1+$1,$2,$3,$4,$5,0*
20,1,$1+$1,$4,$5,$6,$7,0*
20,1,$1+$1,$6,$7,$8,$9,0*
20,1,$1+$1,$8,$9,$2,$3,0*%
G04 Aperture macros list end*
%TA.AperFunction,ComponentPad*%
%ADD10R,1.700000X1.700000*%
%TD*%
%TA.AperFunction,ComponentPad*%
%ADD11O,1.700000X1.700000*%
%TD*%
%TA.AperFunction,ComponentPad*%
%ADD12R,2.600000X2.600000*%
%TD*%
%TA.AperFunction,ComponentPad*%
%ADD13C,2.600000*%
%TD*%
%TA.AperFunction,ComponentPad*%
%ADD14C,1.700000*%
%TD*%
%TA.AperFunction,ComponentPad*%
%ADD15RoundRect,0.250000X0.600000X0.600000X-0.600000X0.600000X-0.600000X-0.600000X0.600000X-0.600000X0*%
%TD*%
%TA.AperFunction,Conductor*%
%ADD16C,0.200000*%
%TD*%
G04 APERTURE END LIST*
D10*
%TO.P,JP2,1,A*%
%TO.N,GND*%
X154940000Y-50800000D03*
D11*
%TO.P,JP2,2,B*%
%TO.N,Net-(J2-Pin_1)*%
X154940000Y-48260000D03*
%TD*%
D10*
%TO.P,JP1,1,A*%
%TO.N,GND*%
X147320000Y-50800000D03*
D11*
%TO.P,JP1,2,B*%
%TO.N,Net-(J2-Pin_2)*%
X147320000Y-48260000D03*
%TD*%
D12*
%TO.P,J2,1,Pin_1*%
%TO.N,Net-(J2-Pin_1)*%
X170180000Y-43500000D03*
D13*
%TO.P,J2,2,Pin_2*%
%TO.N,Net-(J2-Pin_2)*%
X170180000Y-48500000D03*
%TO.P,J2,3,Pin_3*%
%TO.N,GND*%
X170180000Y-53500000D03*
%TO.P,J2,4,Pin_4*%
X170180000Y-58500000D03*
%TO.P,J2,5,Pin_5*%
%TO.N,Net-(J1-DBGACK{slash}NC)*%
X170180000Y-63500000D03*
%TO.P,J2,6,Pin_6*%
%TO.N,Net-(J1-DBGRQ{slash}NC)*%
X170180000Y-68500000D03*
%TO.P,J2,7,Pin_7*%
%TO.N,Net-(J1-~{SRST})*%
X170180000Y-73500000D03*
%TO.P,J2,8,Pin_8*%
%TO.N,Net-(J1-TDO{slash}SWO)*%
X170180000Y-78500000D03*
%TO.P,J2,9,Pin_9*%
%TO.N,Net-(J1-RTCK)*%
X170180000Y-83500000D03*
%TO.P,J2,10,Pin_10*%
%TO.N,Net-(J1-TCK{slash}SWDCLK)*%
X170180000Y-88500000D03*
%TO.P,J2,11,Pin_11*%
%TO.N,Net-(J1-TMS{slash}SWDIO)*%
X170180000Y-93500000D03*
%TO.P,J2,12,Pin_12*%
%TO.N,Net-(J1-TDI)*%
X170180000Y-98500000D03*
%TO.P,J2,13,Pin_13*%
%TO.N,Net-(J1-~{TRST})*%
X170180000Y-103500000D03*
%TO.P,J2,14,Pin_14*%
%TO.N,Net-(J1-VCC{slash}NC)*%
X170180000Y-108500000D03*
%TO.P,J2,15,Pin_15*%
%TO.N,Net-(J1-VTREF)*%
X170180000Y-113500000D03*
%TD*%
D14*
%TO.P,J1,20,GND*%
%TO.N,GND*%
X147320000Y-65720000D03*
%TO.P,J1,19,DBGACK/NC*%
%TO.N,Net-(J1-DBGACK{slash}NC)*%
X149860000Y-65720000D03*
%TO.P,J1,18,GND*%
%TO.N,GND*%
X147320000Y-68260000D03*
%TO.P,J1,17,DBGRQ/NC*%
%TO.N,Net-(J1-DBGRQ{slash}NC)*%
X149860000Y-68260000D03*
%TO.P,J1,16,GND*%
%TO.N,GND*%
X147320000Y-70800000D03*
%TO.P,J1,15,~{SRST}*%
%TO.N,Net-(J1-~{SRST})*%
X149860000Y-70800000D03*
%TO.P,J1,14,GND*%
%TO.N,GND*%
X147320000Y-73340000D03*
%TO.P,J1,13,TDO/SWO*%
%TO.N,Net-(J1-TDO{slash}SWO)*%
X149860000Y-73340000D03*
%TO.P,J1,12,GND*%
%TO.N,GND*%
X147320000Y-75880000D03*
%TO.P,J1,11,RTCK*%
%TO.N,Net-(J1-RTCK)*%
X149860000Y-75880000D03*
%TO.P,J1,10,GND*%
%TO.N,GND*%
X147320000Y-78420000D03*
%TO.P,J1,9,TCK/SWDCLK*%
%TO.N,Net-(J1-TCK{slash}SWDCLK)*%
X149860000Y-78420000D03*
%TO.P,J1,8,GND*%
%TO.N,GND*%
X147320000Y-80960000D03*
%TO.P,J1,7,TMS/SWDIO*%
%TO.N,Net-(J1-TMS{slash}SWDIO)*%
X149860000Y-80960000D03*
%TO.P,J1,6,GND*%
%TO.N,GND*%
X147320000Y-83500000D03*
%TO.P,J1,5,TDI*%
%TO.N,Net-(J1-TDI)*%
X149860000Y-83500000D03*
%TO.P,J1,4,GND*%
%TO.N,GND*%
X147320000Y-86040000D03*
%TO.P,J1,3,~{TRST}*%
%TO.N,Net-(J1-~{TRST})*%
X149860000Y-86040000D03*
%TO.P,J1,2,VCC/NC*%
%TO.N,Net-(J1-VCC{slash}NC)*%
X147320000Y-88580000D03*
D15*
%TO.P,J1,1,VTREF*%
%TO.N,Net-(J1-VTREF)*%
X149860000Y-88580000D03*
%TD*%
D16*
%TO.N,Net-(J2-Pin_2)*%
X157480000Y-38100000D02*
X147320000Y-48260000D01*
X172720000Y-38100000D02*
X157480000Y-38100000D01*
X175260000Y-40640000D02*
X172720000Y-38100000D01*
X175260000Y-45720000D02*
X175260000Y-40640000D01*
X170180000Y-48500000D02*
X172480000Y-48500000D01*
X172480000Y-48500000D02*
X175260000Y-45720000D01*
%TO.N,Net-(J2-Pin_1)*%
X159700000Y-43500000D02*
X170180000Y-43500000D01*
X154940000Y-48260000D02*
X159700000Y-43500000D01*
%TO.N,GND*%
X144780000Y-53340000D02*
X147320000Y-50800000D01*
X147320000Y-65720000D02*
X144780000Y-63180000D01*
X144780000Y-63180000D02*
X144780000Y-53340000D01*
X147320000Y-86040000D02*
X147320000Y-65720000D01*
X147320000Y-50800000D02*
X157480000Y-50800000D01*
X157480000Y-50800000D02*
X160180000Y-53500000D01*
X160180000Y-53500000D02*
X170180000Y-53500000D01*
%TO.N,Net-(J1-VCC{slash}NC)*%
X175260000Y-116840000D02*
X172720000Y-119380000D01*
X175260000Y-111400000D02*
X175260000Y-116840000D01*
X162560000Y-119380000D02*
X147320000Y-104140000D01*
X172360000Y-108500000D02*
X175260000Y-111400000D01*
X172720000Y-119380000D02*
X162560000Y-119380000D01*
X147320000Y-104140000D02*
X147320000Y-88580000D01*
X170180000Y-108500000D02*
X172360000Y-108500000D01*
%TO.N,Net-(J1-VTREF)*%
X165100000Y-111760000D02*
X168440000Y-111760000D01*
X149860000Y-96520000D02*
X165100000Y-111760000D01*
X168440000Y-111760000D02*
X170180000Y-113500000D01*
X149860000Y-88580000D02*
X149860000Y-96520000D01*
%TO.N,Net-(J1-TDI)*%
X165100000Y-96520000D02*
X168200000Y-96520000D01*
X168200000Y-96520000D02*
X170180000Y-98500000D01*
X152080000Y-83500000D02*
X165100000Y-96520000D01*
X149860000Y-83500000D02*
X152080000Y-83500000D01*
%TO.N,Net-(J1-~{TRST})*%
X149860000Y-86040000D02*
X167320000Y-103500000D01*
X167320000Y-103500000D02*
X170180000Y-103500000D01*
%TO.N,Net-(J1-TMS{slash}SWDIO)*%
X168120000Y-91440000D02*
X170180000Y-93500000D01*
X152080000Y-80960000D02*
X162560000Y-91440000D01*
X162560000Y-91440000D02*
X168120000Y-91440000D01*
X149860000Y-80960000D02*
X152080000Y-80960000D01*
%TO.N,Net-(J1-TCK{slash}SWDCLK)*%
X168040000Y-86360000D02*
X170180000Y-88500000D01*
X162560000Y-86360000D02*
X168040000Y-86360000D01*
X154620000Y-78420000D02*
X162560000Y-86360000D01*
X149860000Y-78420000D02*
X154620000Y-78420000D01*
%TO.N,Net-(J1-RTCK)*%
X162560000Y-81280000D02*
X167960000Y-81280000D01*
X157160000Y-75880000D02*
X162560000Y-81280000D01*
X149860000Y-75880000D02*
X157160000Y-75880000D01*
X167960000Y-81280000D02*
X170180000Y-83500000D01*
%TO.N,Net-(J1-TDO{slash}SWO)*%
X167880000Y-76200000D02*
X170180000Y-78500000D01*
X165100000Y-76200000D02*
X167880000Y-76200000D01*
X162240000Y-73340000D02*
X165100000Y-76200000D01*
X149860000Y-73340000D02*
X162240000Y-73340000D01*
%TO.N,Net-(J1-~{SRST})*%
X170180000Y-73340000D02*
X170180000Y-73500000D01*
X167640000Y-70800000D02*
X170180000Y-73340000D01*
X149860000Y-70800000D02*
X167640000Y-70800000D01*
%TO.N,Net-(J1-DBGRQ{slash}NC)*%
X169940000Y-68260000D02*
X170180000Y-68500000D01*
X149860000Y-68260000D02*
X169940000Y-68260000D01*
%TO.N,Net-(J1-DBGACK{slash}NC)*%
X165100000Y-63500000D02*
X170180000Y-63500000D01*
X162880000Y-65720000D02*
X165100000Y-63500000D01*
X149860000Y-65720000D02*
X162880000Y-65720000D01*
%TO.N,GND*%
X170180000Y-58500000D02*
X170180000Y-53500000D01*
%TD*%
M02*
